<svg width="194" height="45" viewBox="0 0 194 45" fill="none" xmlns="http://www.w3.org/2000/svg">
<path d="M11.6052 31.1596C10.5999 30.4056 10.0897 29.7583 9.3433 29.6516C5.82471 29.149 6.07604 32.9189 7.584 34.1755L7.90568 34.4704C9.69627 36.1118 11.5829 37.8728 13.9777 38.2788C14.9678 38.4466 16.1144 38.4362 17.4175 38.0675C20.0976 37.3093 22.3245 35.1397 23.0039 32.4386C23.6734 29.7775 22.8908 27.5528 22.0489 26.0262C21.514 25.0566 20.7617 24.2322 19.9908 23.4372C18.2702 21.6627 15.7017 18.9619 13.5568 16.783C12.9411 16.1576 12.4624 15.37 12.4426 14.4926C12.3687 11.2101 15.4549 11.8605 16.1291 12.31C16.8831 12.8127 17.8884 13.5667 20.1504 15.8287C21.0023 16.6805 21.7188 17.1264 22.3764 17.2808C24.1426 17.6957 25.58 15.9468 26.9246 14.7288C28.348 13.4395 29.8032 12.1922 30.2035 12.0588C30.9575 11.8074 32.6033 11.367 33.4707 12.8127C33.5543 12.952 33.6163 13.0943 33.66 13.2381C34.2394 15.1409 32.2215 16.7733 30.7639 18.1268L29.4495 19.3472C28.9468 19.7661 27.4389 20.9054 27.4389 22.1118C27.4389 23.3182 27.9542 23.9446 29.1982 24.1224C30.4422 24.3001 32.7313 23.3508 36.2353 19.0959C39.7539 14.8233 38.3602 11.556 37.9946 10.5507C36.9893 7.78615 33.9859 6.53455 31.4601 6.53455C29.0674 6.53454 28.4971 7.21329 23.677 11.3988C23.2582 11.7624 22.6218 11.7171 22.2426 11.3125C19.2393 8.10905 16.5497 6.93475 15.6265 6.78087C14.1185 6.52952 10.3182 6.36658 8.08666 10.5507C6.07603 14.3207 7.40121 17.3366 8.84064 19.0959C11.1026 21.8605 16.0286 27.0378 16.6318 27.641C17.3858 28.395 17.8884 29.4003 17.8884 30.4056C17.8884 31.4109 17.1345 32.9189 15.3752 33.1702C13.6335 33.419 12.3302 31.7033 11.6052 31.1596Z" fill="url(#paint0_linear_1729_3452)"/>
<path d="M61.3363 31.5432C60.1697 31.5432 59.1197 31.3432 58.1863 30.9432C57.253 30.5265 56.5197 29.9432 55.9863 29.1932C55.453 28.4432 55.1863 27.5682 55.1863 26.5682H58.2363C58.303 27.3182 58.5947 27.9348 59.1113 28.4182C59.6447 28.9015 60.3863 29.1432 61.3363 29.1432C62.3197 29.1432 63.0863 28.9098 63.6363 28.4432C64.1863 27.9598 64.4613 27.3432 64.4613 26.5932C64.4613 26.0098 64.2863 25.5348 63.9363 25.1682C63.603 24.8015 63.178 24.5182 62.6613 24.3182C62.1613 24.1182 61.4613 23.9015 60.5613 23.6682C59.428 23.3682 58.503 23.0682 57.7863 22.7682C57.0863 22.4515 56.4863 21.9682 55.9863 21.3182C55.4863 20.6682 55.2363 19.8015 55.2363 18.7182C55.2363 17.7182 55.4863 16.8432 55.9863 16.0932C56.4863 15.3432 57.1863 14.7682 58.0863 14.3682C58.9863 13.9682 60.028 13.7682 61.2113 13.7682C62.8947 13.7682 64.2697 14.1932 65.3363 15.0432C66.4197 15.8765 67.0197 17.0265 67.1363 18.4932H63.9863C63.9363 17.8598 63.6363 17.3182 63.0863 16.8682C62.5363 16.4182 61.8113 16.1932 60.9113 16.1932C60.0947 16.1932 59.428 16.4015 58.9113 16.8182C58.3947 17.2348 58.1363 17.8348 58.1363 18.6182C58.1363 19.1515 58.2947 19.5932 58.6113 19.9432C58.9447 20.2765 59.3613 20.5432 59.8613 20.7432C60.3613 20.9432 61.0447 21.1598 61.9113 21.3932C63.0613 21.7098 63.9947 22.0265 64.7113 22.3432C65.4447 22.6598 66.0613 23.1515 66.5613 23.8182C67.078 24.4682 67.3363 25.3432 67.3363 26.4432C67.3363 27.3265 67.0947 28.1598 66.6113 28.9432C66.1447 29.7265 65.453 30.3598 64.5363 30.8432C63.6363 31.3098 62.5697 31.5432 61.3363 31.5432ZM76.6742 31.5932C75.3742 31.5932 74.1992 31.3015 73.1492 30.7182C72.0992 30.1182 71.2742 29.2848 70.6742 28.2182C70.0742 27.1348 69.7742 25.8848 69.7742 24.4682C69.7742 23.0682 70.0826 21.8265 70.6992 20.7432C71.3159 19.6598 72.1576 18.8265 73.2242 18.2432C74.2909 17.6598 75.4826 17.3682 76.7992 17.3682C78.1159 17.3682 79.3076 17.6598 80.3742 18.2432C81.4409 18.8265 82.2826 19.6598 82.8992 20.7432C83.5159 21.8265 83.8242 23.0682 83.8242 24.4682C83.8242 25.8682 83.5076 27.1098 82.8742 28.1932C82.2409 29.2765 81.3742 30.1182 80.2742 30.7182C79.1909 31.3015 77.9909 31.5932 76.6742 31.5932ZM76.6742 29.1182C77.4076 29.1182 78.0909 28.9432 78.7242 28.5932C79.3742 28.2432 79.8992 27.7182 80.2992 27.0182C80.6992 26.3182 80.8992 25.4682 80.8992 24.4682C80.8992 23.4682 80.7076 22.6265 80.3242 21.9432C79.9409 21.2432 79.4326 20.7182 78.7992 20.3682C78.1659 20.0182 77.4826 19.8432 76.7492 19.8432C76.0159 19.8432 75.3326 20.0182 74.6992 20.3682C74.0826 20.7182 73.5909 21.2432 73.2242 21.9432C72.8576 22.6265 72.6742 23.4682 72.6742 24.4682C72.6742 25.9515 73.0492 27.1015 73.7992 27.9182C74.5659 28.7182 75.5242 29.1182 76.6742 29.1182ZM85.6916 24.4682C85.6916 23.0515 85.9749 21.8098 86.5416 20.7432C87.1249 19.6598 87.9249 18.8265 88.9416 18.2432C89.9583 17.6598 91.1249 17.3682 92.4416 17.3682C94.1083 17.3682 95.4833 17.7682 96.5666 18.5682C97.6666 19.3515 98.4083 20.4765 98.7916 21.9432H95.7166C95.4666 21.2598 95.0666 20.7265 94.5166 20.3432C93.9666 19.9598 93.2749 19.7682 92.4416 19.7682C91.2749 19.7682 90.3416 20.1848 89.6416 21.0182C88.9583 21.8348 88.6166 22.9848 88.6166 24.4682C88.6166 25.9515 88.9583 27.1098 89.6416 27.9432C90.3416 28.7765 91.2749 29.1932 92.4416 29.1932C94.0916 29.1932 95.1833 28.4682 95.7166 27.0182H98.7916C98.3916 28.4182 97.6416 29.5348 96.5416 30.3682C95.4416 31.1848 94.0749 31.5932 92.4416 31.5932C91.1249 31.5932 89.9583 31.3015 88.9416 30.7182C87.9249 30.1182 87.1249 29.2848 86.5416 28.2182C85.9749 27.1348 85.6916 25.8848 85.6916 24.4682ZM103.082 15.7682C102.565 15.7682 102.132 15.5932 101.782 15.2432C101.432 14.8932 101.257 14.4598 101.257 13.9432C101.257 13.4265 101.432 12.9932 101.782 12.6432C102.132 12.2932 102.565 12.1182 103.082 12.1182C103.582 12.1182 104.007 12.2932 104.357 12.6432C104.707 12.9932 104.882 13.4265 104.882 13.9432C104.882 14.4598 104.707 14.8932 104.357 15.2432C104.007 15.5932 103.582 15.7682 103.082 15.7682ZM104.482 17.5932V31.3682H101.632V17.5932H104.482ZM107.274 24.4182C107.274 23.0348 107.557 21.8098 108.124 20.7432C108.707 19.6765 109.49 18.8515 110.474 18.2682C111.474 17.6682 112.574 17.3682 113.774 17.3682C114.857 17.3682 115.799 17.5848 116.599 18.0182C117.415 18.4348 118.065 18.9598 118.549 19.5932V17.5932H121.424V31.3682H118.549V29.3182C118.065 29.9682 117.407 30.5098 116.574 30.9432C115.74 31.3765 114.79 31.5932 113.724 31.5932C112.54 31.5932 111.457 31.2932 110.474 30.6932C109.49 30.0765 108.707 29.2265 108.124 28.1432C107.557 27.0432 107.274 25.8015 107.274 24.4182ZM118.549 24.4682C118.549 23.5182 118.349 22.6932 117.949 21.9932C117.565 21.2932 117.057 20.7598 116.424 20.3932C115.79 20.0265 115.107 19.8432 114.374 19.8432C113.64 19.8432 112.957 20.0265 112.324 20.3932C111.69 20.7432 111.174 21.2682 110.774 21.9682C110.39 22.6515 110.199 23.4682 110.199 24.4182C110.199 25.3682 110.39 26.2015 110.774 26.9182C111.174 27.6348 111.69 28.1848 112.324 28.5682C112.974 28.9348 113.657 29.1182 114.374 29.1182C115.107 29.1182 115.79 28.9348 116.424 28.5682C117.057 28.2015 117.565 27.6682 117.949 26.9682C118.349 26.2515 118.549 25.4182 118.549 24.4682ZM128.017 12.8682V31.3682H125.167V12.8682H128.017ZM150.059 13.9932V31.3682H147.209V19.4682L141.909 31.3682H139.934L134.609 19.4682V31.3682H131.759V13.9932H134.834L140.934 27.6182L147.009 13.9932H150.059ZM152.855 24.4182C152.855 23.0348 153.138 21.8098 153.705 20.7432C154.288 19.6765 155.071 18.8515 156.055 18.2682C157.055 17.6682 158.155 17.3682 159.355 17.3682C160.438 17.3682 161.38 17.5848 162.18 18.0182C162.996 18.4348 163.646 18.9598 164.13 19.5932V17.5932H167.005V31.3682H164.13V29.3182C163.646 29.9682 162.988 30.5098 162.155 30.9432C161.321 31.3765 160.371 31.5932 159.305 31.5932C158.121 31.5932 157.038 31.2932 156.055 30.6932C155.071 30.0765 154.288 29.2265 153.705 28.1432C153.138 27.0432 152.855 25.8015 152.855 24.4182ZM164.13 24.4682C164.13 23.5182 163.93 22.6932 163.53 21.9932C163.146 21.2932 162.638 20.7598 162.005 20.3932C161.371 20.0265 160.688 19.8432 159.955 19.8432C159.221 19.8432 158.538 20.0265 157.905 20.3932C157.271 20.7432 156.755 21.2682 156.355 21.9682C155.971 22.6515 155.78 23.4682 155.78 24.4182C155.78 25.3682 155.971 26.2015 156.355 26.9182C156.755 27.6348 157.271 28.1848 157.905 28.5682C158.555 28.9348 159.238 29.1182 159.955 29.1182C160.688 29.1182 161.371 28.9348 162.005 28.5682C162.638 28.2015 163.146 27.6682 163.53 26.9682C163.93 26.2515 164.13 25.4182 164.13 24.4682ZM174.073 19.9182V27.5432C174.073 28.0598 174.19 28.4348 174.423 28.6682C174.673 28.8848 175.09 28.9932 175.673 28.9932H177.423V31.3682H175.173C173.89 31.3682 172.906 31.0682 172.223 30.4682C171.54 29.8682 171.198 28.8932 171.198 27.5432V19.9182H169.573V17.5932H171.198V14.1682H174.073V17.5932H177.423V19.9182H174.073ZM192.675 24.1432C192.675 24.6598 192.641 25.1265 192.575 25.5432H182.05C182.133 26.6432 182.541 27.5265 183.275 28.1932C184.008 28.8598 184.908 29.1932 185.975 29.1932C187.508 29.1932 188.591 28.5515 189.225 27.2682H192.3C191.883 28.5348 191.125 29.5765 190.025 30.3932C188.941 31.1932 187.591 31.5932 185.975 31.5932C184.658 31.5932 183.475 31.3015 182.425 30.7182C181.391 30.1182 180.575 29.2848 179.975 28.2182C179.391 27.1348 179.1 25.8848 179.1 24.4682C179.1 23.0515 179.383 21.8098 179.95 20.7432C180.533 19.6598 181.341 18.8265 182.375 18.2432C183.425 17.6598 184.625 17.3682 185.975 17.3682C187.275 17.3682 188.433 17.6515 189.45 18.2182C190.466 18.7848 191.258 19.5848 191.825 20.6182C192.391 21.6348 192.675 22.8098 192.675 24.1432ZM189.7 23.2432C189.683 22.1932 189.308 21.3515 188.575 20.7182C187.841 20.0848 186.933 19.7682 185.85 19.7682C184.866 19.7682 184.025 20.0848 183.325 20.7182C182.625 21.3348 182.208 22.1765 182.075 23.2432H189.7Z" fill="#353535"/>
<defs>
<linearGradient id="paint0_linear_1729_3452" x1="6.53516" y1="6.53455" x2="40.2457" y2="7.25178" gradientUnits="userSpaceOnUse">
<stop stop-color="#5082ED"/>
<stop offset="0.345" stop-color="#9A72CB"/>
<stop offset="0.63" stop-color="#B86DA2"/>
<stop offset="1" stop-color="#D96570"/>
</linearGradient>
</defs>
</svg>
