<svg width="285" height="15" viewBox="0 0 285 15" fill="none" xmlns="http://www.w3.org/2000/svg">
<path d="M197.902 13.7363C165.49 10.005 129.306 12.0296 96.5116 12.3723C87.0817 12.471 77.4336 13.1286 68.0128 12.847C66.7841 12.8104 61.4233 12.6732 60.4177 11.9399C60.2864 11.8444 64.4666 11.4681 66.4975 11.3072C70.4464 10.9942 74.3935 10.7633 78.3391 10.4327C88.7122 9.56414 99.2667 9.14037 109.731 8.74998C136.592 7.74865 184.644 4.66284 210.896 9.01453C212.197 9.23012 208.176 8.97744 206.816 8.95741C204.581 8.92478 202.347 8.87755 200.111 8.83972C192.82 8.71684 185.467 8.49828 178.175 8.53265C154.675 8.64267 131.092 8.11407 107.597 8.58753C100.528 8.73019 93.4812 9.02639 86.4086 9.14087C82.3118 9.20713 82.4954 9.26325 78.2614 9.18587C76.4257 9.15224 71.3354 9.44966 72.7872 8.84368C75.3444 7.77609 83.3367 8.04312 86.4278 7.8253C100.542 6.83189 114.621 5.5346 128.807 4.83763C165.181 3.05057 202.211 3.04637 238.668 3.79402C253.582 4.09986 268.65 2.91683 283.5 3.87266C247.468 1.36687 210.014 1.72265 173.784 1.79509C132.992 1.87668 92.2465 1.88212 51.4538 2.34495C34.7069 2.53483 18.2978 4.25212 1.5 4.12677" stroke="url(#paint0_linear_1729_4184)" stroke-width="2" stroke-miterlimit="1.5" stroke-linecap="round" stroke-linejoin="round"/>
<defs>
<linearGradient id="paint0_linear_1729_4184" x1="1.5" y1="1.73633" x2="239.54" y2="120.045" gradientUnits="userSpaceOnUse">
<stop stop-color="#5082ED"/>
<stop offset="0.345" stop-color="#9A72CB"/>
<stop offset="0.63" stop-color="#B86DA2"/>
<stop offset="1" stop-color="#D96570"/>
</linearGradient>
</defs>
</svg>
