<svg width="235" height="16" viewBox="0 0 235 16" fill="none" xmlns="http://www.w3.org/2000/svg">
<path fill-rule="evenodd" clip-rule="evenodd" d="M233.922 5.22166C232.967 3.40399 224.762 2.63866 200.105 2.00088C177.097 1.39499 150.312 -0.358919 103.515 0.597752C67.7449 1.3312 23.2053 4.265 23.2053 5.89134C23.2053 7.07123 24.9418 7.10312 41.5247 6.05078C56.8487 5.09411 64.7061 4.87089 74.2999 4.61578C35.8379 7.10312 27.6332 8.72947 7.14331 10.292C-5.7063 11.2806 1.80378 14.1187 6.49215 13.8317C6.53556 13.8317 66.3123 10.2601 71.9557 10.4515C72.4766 10.4834 66.7898 11.0574 59.2798 11.727C38.3123 13.6404 42.3495 16.829 58.0642 15.3621C110.939 10.4193 160.688 8.88859 199.019 11.0252C211.131 11.6948 212.477 11.6948 212.477 10.8657C212.477 9.39881 209.177 8.28302 204.012 8.0598C195.937 7.67713 164.855 6.59258 150.79 6.27369C149.705 6.2418 150.225 5.63622 151.181 5.57245C156.911 5.15789 202.405 5.47646 220.291 5.92291C233.444 6.2418 234.399 6.21023 233.922 5.22166Z" fill="url(#paint0_linear_1729_3487)"/>
<defs>
<linearGradient id="paint0_linear_1729_3487" x1="0.0078125" y1="0.317871" x2="223.32" y2="71.9977" gradientUnits="userSpaceOnUse">
<stop stop-color="#5082ED"/>
<stop offset="0.345" stop-color="#9A72CB"/>
<stop offset="0.63" stop-color="#B86DA2"/>
<stop offset="1" stop-color="#D96570"/>
</linearGradient>
</defs>
</svg>
